<?xml version="1.0" encoding="iso-8859-1"?>
<!-- Generator: Adobe Illustrator 19.0.0, SVG Export Plug-In . SVG Version: 6.00 Build 0)  -->
<svg version="1.1" id="Capa_1" xmlns="http://www.w3.org/2000/svg" xmlns:xlink="http://www.w3.org/1999/xlink" x="0px" y="0px"
	 viewBox="0 0 512 512" style="enable-background:new 0 0 512 512;fill:#7A4896;" xml:space="preserve">
<g>
	<g>
		<path d="M264.535,247.467h-17.067c-4.713,0-8.533,3.82-8.533,8.533s3.82,8.533,8.533,8.533h17.067c4.713,0,8.533-3.82,8.533-8.533
			S269.248,247.467,264.535,247.467z"/>
	</g>
</g>
<g>
	<g>
		<path d="M273.069,281.6h-34.133c-4.713,0-8.533,3.82-8.533,8.533s3.82,8.533,8.533,8.533h34.133c4.713,0,8.533-3.82,8.533-8.533
			S277.781,281.6,273.069,281.6z"/>
	</g>
</g>
<g>
	<g>
		<path d="M230.402,187.733h-34.133c-4.713,0-8.533,3.82-8.533,8.533s3.82,8.533,8.533,8.533h8.533v8.533
			c0,4.713,3.821,8.533,8.533,8.533c4.713,0,8.533-3.821,8.533-8.533V204.8h8.533c4.713,0,8.533-3.82,8.533-8.533
			S235.115,187.733,230.402,187.733z"/>
	</g>
</g>
<g>
	<g>
		<path d="M315.735,187.733h-34.133c-4.713,0-8.533,3.82-8.533,8.533s3.82,8.533,8.533,8.533h8.533v8.533
			c0,4.713,3.82,8.533,8.533,8.533s8.533-3.821,8.533-8.533V204.8h8.533c4.713,0,8.533-3.82,8.533-8.533
			S320.448,187.733,315.735,187.733z"/>
	</g>
</g>
<g>
	<g>
		<path d="M461.827,478.617l-11.358-35.542c-15.248-40.664-54.121-67.605-97.55-67.608h-23.321
			c-1.973-5.032-3.221-10.32-3.706-15.703c80.973-18.159,134.91-65.818,134.91-120.272c0.001-2.595-0.141-5.188-0.425-7.767
			c-0.001-4.691-3.804-8.492-8.494-8.492c-0.013,0-0.026,0-0.039,0c-1.104,0.007-2.196,0.232-3.212,0.663
			c-0.284,0.152-0.559,0.321-0.823,0.506c-0.646,0.328-1.248,0.736-1.791,1.217c-0.669,0.799-1.276,1.648-1.816,2.54
			c-0.175,0.421-0.314,0.857-0.417,1.301c-0.167,0.405-0.301,0.823-0.4,1.249c-3.213,14.915-16.362,25.592-31.619,25.675
			c4.222-18.173,6.359-36.768,6.369-55.425C418.135,90.15,345.402,0,256.002,0S93.868,90.15,93.868,200.958
			c0.01,18.657,2.146,37.253,6.369,55.426c-15.167-0.089-28.264-10.641-31.577-25.443c-0.094-0.503-0.235-0.997-0.423-1.473
			c-0.089-0.439-0.212-0.87-0.369-1.29c-0.295-0.566-0.655-1.097-1.073-1.58c-0.224-0.346-0.474-0.674-0.748-0.982
			c-0.559-0.492-1.181-0.908-1.85-1.235c-0.253-0.18-0.517-0.344-0.79-0.493c-1.029-0.429-2.133-0.651-3.248-0.655
			c-0.267,0-0.49,0.129-0.75,0.153c-0.843,0.045-1.674,0.215-2.467,0.503c-0.389,0.206-0.761,0.442-1.112,0.706
			c-0.553,0.294-1.073,0.647-1.549,1.054c-0.299,0.338-0.57,0.7-0.811,1.082c-0.756,0.778-1.244,1.777-1.394,2.851
			c-0.185,0.477-0.325,0.971-0.417,1.475c-0.294,2.802-0.447,5.616-0.458,8.433c0,54.454,53.937,102.112,134.912,120.273
			c-0.486,5.383-1.735,10.67-3.708,15.702h-23.321c-43.585-0.002-82.563,27.133-97.692,68.008l-11.208,35.133
			c-4.306,13.464,3.117,27.869,16.581,32.175c2.522,0.807,5.154,1.217,7.802,1.216h362.867c14.139,0.001,25.602-11.46,25.603-25.599
			C463.038,483.759,462.63,481.133,461.827,478.617z M401.069,200.958c0.052,20.635-2.712,41.18-8.217,61.067
			c-0.035,0.126,0.002,0.25-0.027,0.376c-0.029,0.124-0.116,0.215-0.14,0.341c-0.031,0.445-0.026,0.892,0.017,1.336
			c-0.049,0.56-0.042,1.124,0.021,1.683c0.12,0.539,0.294,1.065,0.521,1.569c0.162,0.505,0.372,0.993,0.627,1.458
			c0.312,0.449,0.667,0.867,1.06,1.247c0.343,0.414,0.727,0.793,1.145,1.131c0.474,0.305,0.977,0.562,1.502,0.767
			c0.379,0.236,0.777,0.439,1.191,0.608c0.154,0.044,0.308,0.029,0.463,0.064c0.093,0.021,0.16,0.085,0.254,0.103
			c0.466,0.087,0.994,0.057,1.468,0.133l0.124,0.017l0.023-0.004c13.042,2.269,26.458-0.501,37.535-7.748
			c-13.958,34.711-55.802,63.754-113.34,77.315c0.179-5.508,0.645-11.443,1.398-17.804c1.054-9.396,2.562-17.452,3.781-23.148
			c11.117-11.31,17.97-26.124,19.394-41.919c0-0.14-0.019-0.282-0.019-0.421c0-0.095,0.019-0.194,0.019-0.287
			c0-2.3-0.092-4.608-0.308-6.958c-0.3-2.842-0.458-5.742-0.642-9.15c-0.219-4.546-0.254-9.067-0.146-13.565
			c0.366-13.848,2.347-27.606,5.904-40.994c0.217-0.917,0.5-1.908,0.833-2.992c0.333-1.142,0.592-2.35,0.842-3.525l-0.194-0.058
			c1.123-4.47,1.838-9.034,2.135-13.633c0.1-1.35,0.108-2.692,0.108-4.142c0-0.692-0.104-1.362-0.123-2.049
			c5.66-11.004,8.627-23.194,8.656-35.567c0-40.317-31.242-75.55-76.8-87.65v-4.425c-0.017-4.288-0.848-8.534-2.449-12.513
			C352.472,40.01,401.069,113.367,401.069,200.958z M180.295,228.75c-0.326-15.217-2.453-30.341-6.335-45.058v0
			c-0.292-1.292-0.675-2.583-1.025-3.767c-1.209-4.311-1.949-8.739-2.208-13.208c-0.067-0.933-0.058-1.875-0.058-2.891
			c0-38.575,38.283-69.958,85.333-69.958s85.333,31.383,85.333,69.958c0,1.017,0.008,1.958-0.075,3.083
			c-0.257,4.365-0.98,8.689-2.158,12.9c-0.383,1.3-0.767,2.592-0.975,3.567c-3.946,14.908-6.094,30.235-6.398,45.653
			c-0.137,5.244-0.076,10.557,0.181,15.939c0.167,3.092,0.35,6.25,0.667,9.283c0.137,1.568,0.194,3.204,0.206,4.841
			c-1.75,11.974-7.385,23.042-16.04,31.501c-10.271,11.601-21.691,22.132-34.083,31.433c-15.735,12.08-37.627,12.07-53.35-0.025
			c-12.389-9.302-23.806-19.833-34.075-31.433c-8.645-8.455-14.272-19.517-16.015-31.483c0.012-1.629,0.069-3.26,0.19-4.7
			c0.333-3.167,0.517-6.325,0.725-10.133C180.385,239.053,180.438,233.887,180.295,228.75z M238.935,45.308V34.133
			c0-9.426,7.641-17.067,17.067-17.067s17.067,7.641,17.067,17.067v11.175c-0.001,4.041,2.835,7.527,6.792,8.35
			c41.217,8.6,70.008,38.433,70.008,72.55c0,0.892-0.127,1.765-0.165,2.65c-17.613-30.728-49.78-50.251-85.169-51.691v-8.9
			c0-4.713-3.82-8.533-8.533-8.533s-8.533,3.82-8.533,8.533v8.9c-35.389,1.44-67.555,20.963-85.169,51.692
			c-0.038-0.886-0.165-1.759-0.165-2.651c0-34.116,28.791-63.95,70.008-72.55C236.1,52.835,238.935,49.349,238.935,45.308z
			 M73.368,265.106c11.615,7.405,25.608,10.122,39.15,7.602c0.125-0.024,0.217-0.109,0.341-0.137
			c0.126-0.03,0.251,0.006,0.376-0.029c0.413-0.169,0.812-0.372,1.191-0.608c0.525-0.204,1.028-0.461,1.502-0.767
			c0.418-0.338,0.801-0.717,1.145-1.131c0.393-0.38,0.748-0.798,1.06-1.247c0.255-0.465,0.465-0.953,0.627-1.458
			c0.227-0.504,0.401-1.029,0.521-1.569c0.063-0.559,0.07-1.123,0.021-1.683c0.043-0.444,0.048-0.891,0.017-1.336
			c-0.024-0.127-0.11-0.219-0.14-0.341c-0.029-0.127,0.009-0.25-0.027-0.375c-5.504-19.887-8.269-40.432-8.217-61.067
			c0-87.592,48.597-160.948,113.382-179.337c-1.601,3.978-2.432,8.224-2.449,12.513v4.425c-45.558,12.1-76.8,47.333-76.8,87.65
			c0.03,12.374,2.997,24.564,8.656,35.568c-0.019,0.689-0.123,1.357-0.123,2.049c0,1.45,0.008,2.792,0.092,3.95
			c0.061,1.21,0.282,2.487,0.413,3.723l-0.129,0.01c0.442,4.68,1.299,9.312,2.558,13.842c0.292,0.917,0.575,1.908,0.858,3.092
			c3.545,13.381,5.5,27.134,5.824,40.973c0.104,4.576,0.061,9.2-0.166,13.885c-0.15,2.842-0.308,5.742-0.625,8.733
			c-0.2,2.2-0.292,4.508-0.292,6.808c0,0.092,0.018,0.189,0.019,0.282c-0.001,0.145-0.019,0.282-0.019,0.427
			c1.424,15.794,8.278,30.607,19.394,41.917c1.218,5.696,2.727,13.756,3.79,23.2c0.756,6.336,1.22,12.255,1.392,17.755
			C129.172,328.861,87.327,299.819,73.368,265.106z M74.568,494.933c-2.728,0.015-5.295-1.289-6.892-3.5v0
			c-1.62-2.196-2.08-5.039-1.233-7.633l11.075-34.742c11.773-31.416,40.558-53.266,73.983-56.156l-21.864,102.031H74.568z
			 M169.033,392.533h18.702c3.445,0.001,6.552-2.073,7.873-5.254c0.046-0.077,0.116-0.133,0.16-0.212
			c5.02-10.039,7.7-21.085,7.838-32.308l0.012-0.033c0.01-0.052-0.01-0.101,0-0.153c0.452-10.643,0.003-21.305-1.342-31.872
			l-0.04-0.3c5.987,5.321,11.8,10.058,16.606,13.767c21.922,16.768,52.358,16.779,74.292,0.025
			c4.82-3.721,10.639-8.467,16.632-13.793l-0.032,0.251c-1.347,10.572-1.798,21.239-1.349,31.888
			c0.011,0.064-0.014,0.123-0.001,0.188l0.017,0.041c0.272,8.895,1.941,17.691,4.948,26.067L149.152,485.325L169.033,392.533z
			 M165.841,494.933l160.91-102.4h26.167c22.617-0.046,44.352,8.771,60.546,24.56h0l-108.992,77.84H165.841z M444.327,491.433
			L444.327,491.433c-1.597,2.211-4.164,3.515-6.892,3.5H333.829l90.688-64.767c4.026,5.735,7.327,11.946,9.827,18.492l11.225,35.15
			C446.407,486.402,445.945,489.24,444.327,491.433z"/>
	</g>
</g>
<g>
</g>
<g>
</g>
<g>
</g>
<g>
</g>
<g>
</g>
<g>
</g>
<g>
</g>
<g>
</g>
<g>
</g>
<g>
</g>
<g>
</g>
<g>
</g>
<g>
</g>
<g>
</g>
<g>
</g>
</svg>
